#tb 0: 1001/12000
0,          0,          0,        1,    84480, 0xa7776101
0,          1,          1,        1,    84480, 0xeb1560ca
0,          2,          2,        1,    84480, 0x7a4e6123
0,          3,          3,        1,    84480, 0x7a4e6123
0,          4,          4,        1,    84480, 0x8ee36111
0,          5,          5,        1,    84480, 0x3c2a6110
0,          6,          6,        1,    84480, 0x3c2a6110
0,          7,          7,        1,    84480, 0x961e607d
0,          8,          8,        1,    84480, 0xb7b5615d
0,          9,          9,        1,    84480, 0x636d6011
0,         10,         10,        1,    84480, 0x69fd6111
0,         11,         11,        1,    84480, 0x636d6011
0,         12,         12,        1,    84480, 0x69fd6111
0,         13,         13,        1,    84480, 0x636d6011
0,         14,         14,        1,    84480, 0x69fd6111
0,         15,         15,        1,    84480, 0x636d6011
0,         16,         16,        1,    84480, 0x2d1a610a
0,         17,         17,        1,    84480, 0x268a600a
0,         18,         18,        1,    84480, 0x2d1a610a
0,         19,         19,        1,    84480, 0x268a600a
0,         20,         20,        1,    84480, 0x2d1a610a
0,         21,         21,        1,    84480, 0x268a600a
0,         22,         22,        1,    84480, 0x2d1a610a
0,         23,         23,        1,    84480, 0x268a600a
0,         24,         24,        1,    84480, 0xa88261c9
0,         25,         25,        1,    84480, 0x98e95fc6
0,         26,         26,        1,    84480, 0x9f7960c6
0,         27,         27,        1,    84480, 0x98e95fc6
0,         28,         28,        1,    84480, 0x9f7960c6
0,         29,         29,        1,    84480, 0x98e95fc6
0,         30,         30,        1,    84480, 0x9f7960c6
0,         31,         31,        1,    84480, 0x98e95fc6
0,         32,         32,        1,    84480, 0x9e796202
0,         33,         33,        1,    84480, 0xf3b16002
0,         34,         34,        1,    84480, 0xfa416102
0,         35,         35,        1,    84480, 0xf3b16002
0,         36,         36,        1,    84480, 0xfa416102
0,         37,         37,        1,    84480, 0x97e96102
0,         38,         38,        1,    84480, 0xfa416102
0,         39,         39,        1,    84480, 0xf3b16002
0,         40,         40,        1,    84480, 0x5f4a6c03
0,         41,         41,        1,    84480, 0x7e4960df
0,         42,         42,        1,    84480, 0x7e4960df
0,         43,         43,        1,    84480, 0x7e4960df
0,         44,         44,        1,    84480, 0x7e4960df
0,         45,         45,        1,    84480, 0x7e4960df
0,         46,         46,        1,    84480, 0x7e4960df
0,         47,         47,        1,    84480, 0x7e4960df
0,         48,         48,        1,    84480, 0x7e4960df
0,         49,         49,        1,    84480, 0x7e4960df
0,         50,         50,        1,    84480, 0x7e4960df
0,         51,         51,        1,    84480, 0x7e4960df
0,         52,         52,        1,    84480, 0x7e4960df
0,         53,         53,        1,    84480, 0xd1bcadbe
0,         54,         54,        1,    84480, 0xdb3a0f37
0,         55,         55,        1,    84480, 0x79cfaed7
0,         56,         56,        1,    84480, 0xd5468265
0,         57,         57,        1,    84480, 0x2177a020
0,         58,         58,        1,    84480, 0x88c6412e
0,         59,         59,        1,    84480, 0x5710feee
0,         60,         60,        1,    84480, 0x7ffe7f6c
0,         61,         61,        1,    84480, 0x55a50bee
0,         62,         62,        1,    84480, 0xdb9ca924
0,         63,         63,        1,    84480, 0xa3307f1f
0,         64,         64,        1,    84480, 0x501437a6
0,         65,         65,        1,    84480, 0x60f0c1fc
0,         66,         66,        1,    84480, 0x8ad65ac1
0,         67,         67,        1,    84480, 0xf4d6f7d1
0,         68,         68,        1,    84480, 0x00179ef1
0,         69,         69,        1,    84480, 0x062db8f7
0,         70,         70,        1,    84480, 0xc7fedc71
0,         71,         71,        1,    84480, 0x5d1191a1
0,         72,         72,        1,    84480, 0x34142b1b
0,         73,         73,        1,    84480, 0xcba2ee3e
0,         74,         74,        1,    84480, 0x4be1cff3
0,         75,         75,        1,    84480, 0x4cf67ae2
0,         76,         76,        1,    84480, 0xfecc00bc
0,         77,         77,        1,    84480, 0xe86f5aa2
0,         78,         78,        1,    84480, 0xdec5dc1a
0,         79,         79,        1,    84480, 0x84c8866d
0,         80,         80,        1,    84480, 0x283589a5
0,         81,         81,        1,    84480, 0x66abf008
0,         82,         82,        1,    84480, 0xdedd5e0c
0,         83,         83,        1,    84480, 0x2ef1b6c3
0,         84,         84,        1,    84480, 0x7c2605ea
0,         85,         85,        1,    84480, 0x484849e5
0,         86,         86,        1,    84480, 0x3d69a456
0,         87,         87,        1,    84480, 0x1e960083
0,         88,         88,        1,    84480, 0xe991751b
0,         89,         89,        1,    84480, 0xdd40bc77
0,         90,         90,        1,    84480, 0x4ecce8c0
0,         91,         91,        1,    84480, 0xb4d51644
0,         92,         92,        1,    84480, 0xf77e8091
0,         93,         93,        1,    84480, 0xca8cdc2d
0,         94,         94,        1,    84480, 0xc1775f9f
0,         95,         95,        1,    84480, 0xfc509d8f
0,         96,         96,        1,    84480, 0x1fb9aa24
0,         97,         97,        1,    84480, 0x8e7e0a24
0,         98,         98,        1,    84480, 0xdad652db
0,         99,         99,        1,    84480, 0xcda8192e
0,        100,        100,        1,    84480, 0xd62f239b
0,        101,        101,        1,    84480, 0xbe91a177
0,        102,        102,        1,    84480, 0x43256f18
0,        103,        103,        1,    84480, 0x68b7907b
0,        104,        104,        1,    84480, 0xcebd5fab
0,        105,        105,        1,    84480, 0xadd660b9
0,        106,        106,        1,    84480, 0xadd660b9
0,        107,        107,        1,    84480, 0xe1f85e29
0,        108,        108,        1,    84480, 0x71d76d90
0,        109,        109,        1,    84480, 0xaddcd528
0,        110,        110,        1,    84480, 0xb4d286b4
0,        111,        111,        1,    84480, 0xda297e25
0,        112,        112,        1,    84480, 0x5b4d344c
0,        113,        113,        1,    84480, 0x6d9aa86e
0,        114,        114,        1,    84480, 0x6fcd1f16
0,        115,        115,        1,    84480, 0xe50a3320
0,        116,        116,        1,    84480, 0x5ec6bcc1
0,        117,        117,        1,    84480, 0x0827e336
0,        118,        118,        1,    84480, 0x4fe0e51f
0,        119,        119,        1,    84480, 0xf31970c6
0,        120,        120,        1,    84480, 0xa09e068b
0,        121,        121,        1,    84480, 0xc25b24c7
0,        122,        122,        1,    84480, 0x24815b27
0,        123,        123,        1,    84480, 0x57e65bbd
0,        124,        124,        1,    84480, 0xbb373463
0,        125,        125,        1,    84480, 0xac0d29b0
0,        126,        126,        1,    84480, 0x8c332704
0,        127,        127,        1,    84480, 0x8f790a3a
0,        128,        128,        1,    84480, 0x1d4fa6fc
0,        129,        129,        1,    84480, 0xa8aaae15
0,        130,        130,        1,    84480, 0x52e5b046
0,        131,        131,        1,    84480, 0x1216a337
0,        132,        132,        1,    84480, 0xd391afe3
0,        133,        133,        1,    84480, 0x854dbe7e
0,        134,        134,        1,    84480, 0x652eb5c9
0,        135,        135,        1,    84480, 0x413ca255
0,        136,        136,        1,    84480, 0x516c70b7
0,        137,        137,        1,    84480, 0x4b468977
0,        138,        138,        1,    84480, 0x50e4aae0
0,        139,        139,        1,    84480, 0x650bd349
0,        140,        140,        1,    84480, 0x20cf0234
0,        141,        141,        1,    84480, 0xd7e7393c
0,        142,        142,        1,    84480, 0xeb8c5db8
0,        143,        143,        1,    84480, 0xcd2f7069
0,        144,        144,        1,    84480, 0xc3a3b6c6
0,        145,        145,        1,    84480, 0xc5ea3ba2
0,        146,        146,        1,    84480, 0x7bd0d727
0,        147,        147,        1,    84480, 0x10cd4a60
0,        148,        148,        1,    84480, 0xc191d944
0,        149,        149,        1,    84480, 0x5f975778
0,        150,        150,        1,    84480, 0xed305bb7
0,        151,        151,        1,    84480, 0x257d8ede
0,        152,        152,        1,    84480, 0x3ed528bf
0,        153,        153,        1,    84480, 0x5604f524
0,        154,        154,        1,    84480, 0xbd2972e5
0,        155,        155,        1,    84480, 0x0723d2b7
0,        156,        156,        1,    84480, 0xa6c62518
0,        157,        157,        1,    84480, 0x24d969ac
0,        158,        158,        1,    84480, 0x7121b0f7
0,        159,        159,        1,    84480, 0x9b62b61a
0,        160,        160,        1,    84480, 0x279a3708
0,        161,        161,        1,    84480, 0xbbc4bec4
0,        162,        162,        1,    84480, 0x79472eca
0,        163,        163,        1,    84480, 0xc141c02f
0,        164,        164,        1,    84480, 0xc86565b7
0,        165,        165,        1,    84480, 0x8119b09c
0,        166,        166,        1,    84480, 0x81fa19e7
0,        167,        167,        1,    84480, 0x748ebd01
0,        168,        168,        1,    84480, 0x9f1d09c0
0,        169,        169,        1,    84480, 0xc2b3a317
0,        170,        170,        1,    84480, 0xc5069ccd
0,        171,        171,        1,    84480, 0x8e1a96d3
0,        172,        172,        1,    84480, 0x7765c2a9
0,        173,        173,        1,    84480, 0x144fa551
0,        174,        174,        1,    84480, 0x085b614d
0,        175,        175,        1,    84480, 0x34940386
0,        176,        176,        1,    84480, 0x826dc303
0,        177,        177,        1,    84480, 0x804b10af
0,        178,        178,        1,    84480, 0x59eccee2
0,        179,        179,        1,    84480, 0x29b12547
0,        180,        180,        1,    84480, 0xc614f508
0,        181,        181,        1,    84480, 0x285d3c1d
0,        182,        182,        1,    84480, 0x61a4f335
0,        183,        183,        1,    84480, 0xbceeac58
0,        184,        184,        1,    84480, 0x6eb5866e
0,        185,        185,        1,    84480, 0x4a431606
0,        186,        186,        1,    84480, 0x58a29bfd
0,        187,        187,        1,    84480, 0x01c0bf81
0,        188,        188,        1,    84480, 0xbd53414b
0,        189,        189,        1,    84480, 0xb15fb516
0,        190,        190,        1,    84480, 0x74bd0122
0,        191,        191,        1,    84480, 0x1d5746e9
0,        192,        192,        1,    84480, 0x94e355d5
0,        193,        193,        1,    84480, 0x7865c71a
0,        194,        194,        1,    84480, 0xbd821f6f
0,        195,        195,        1,    84480, 0x4872c267
0,        196,        196,        1,    84480, 0x693f4059
0,        197,        197,        1,    84480, 0x1213440a
0,        198,        198,        1,    84480, 0x5127a841
0,        199,        199,        1,    84480, 0x560c7cd0
0,        200,        200,        1,    84480, 0xb065c26b
0,        201,        201,        1,    84480, 0xec5e2719
0,        202,        202,        1,    84480, 0xdd5795ee
0,        203,        203,        1,    84480, 0xb6bbb178
0,        204,        204,        1,    84480, 0x10551dcf
0,        205,        205,        1,    84480, 0x1aabed29
0,        206,        206,        1,    84480, 0xc09220c8
0,        207,        207,        1,    84480, 0xc9587b0c
0,        208,        208,        1,    84480, 0x8b49ebc4
0,        209,        209,        1,    84480, 0x0cb3fea5
0,        210,        210,        1,    84480, 0x454954d6
0,        211,        211,        1,    84480, 0x2bf8ee00
0,        212,        212,        1,    84480, 0xe262acd2
0,        213,        213,        1,    84480, 0x211defa4
0,        214,        214,        1,    84480, 0x00c9129c
0,        215,        215,        1,    84480, 0xabf2fb3a
0,        216,        216,        1,    84480, 0x008d9a9c
0,        217,        217,        1,    84480, 0x1a982585
0,        218,        218,        1,    84480, 0x0fd36871
0,        219,        219,        1,    84480, 0x3ba1cb68
0,        220,        220,        1,    84480, 0xa5a539d4
0,        221,        221,        1,    84480, 0xce729ec1
0,        222,        222,        1,    84480, 0xfe7efd0f
0,        223,        223,        1,    84480, 0x9b52713e
0,        224,        224,        1,    84480, 0xabb3bd58
0,        225,        225,        1,    84480, 0x682c33f9
0,        226,        226,        1,    84480, 0xe0966dc3
0,        227,        227,        1,    84480, 0x7f2ecffd
0,        228,        228,        1,    84480, 0x8c1f238d
0,        229,        229,        1,    84480, 0xc8419ed7
0,        230,        230,        1,    84480, 0x07e8efca
0,        231,        231,        1,    84480, 0xf7b837ef
0,        232,        232,        1,    84480, 0xebdd57fa
0,        233,        233,        1,    84480, 0x6b988c3d
0,        234,        234,        1,    84480, 0x3e8c95e9
0,        235,        235,        1,    84480, 0x4a8dbd17
0,        236,        236,        1,    84480, 0x9e67dbc3
0,        237,        237,        1,    84480, 0xd03f9808
0,        238,        238,        1,    84480, 0x9651e246
0,        239,        239,        1,    84480, 0x99729ec7
0,        240,        240,        1,    84480, 0x0d0ec1d7
0,        241,        241,        1,    84480, 0xe322ea26
0,        242,        242,        1,    84480, 0xbc663387
0,        243,        243,        1,    84480, 0x72c64965
0,        244,        244,        1,    84480, 0x8048c9a5
0,        245,        245,        1,    84480, 0xd259f9d3
0,        246,        246,        1,    84480, 0x773c7993
0,        247,        247,        1,    84480, 0xc75ed7e2
0,        248,        248,        1,    84480, 0xe18e0ba6
0,        249,        249,        1,    84480, 0x16ddee58
0,        250,        250,        1,    84480, 0xf73fdb35
0,        251,        251,        1,    84480, 0x1548c468
0,        252,        252,        1,    84480, 0x0e0c79db
0,        253,        253,        1,    84480, 0x63143d90
0,        254,        254,        1,    84480, 0x52a38f29
0,        255,        255,        1,    84480, 0xed9786d1
0,        256,        256,        1,    84480, 0x305e33ee
0,        257,        257,        1,    84480, 0xdbd01581
0,        258,        258,        1,    84480, 0x70ef5482
0,        259,        259,        1,    84480, 0x9936316d
0,        260,        260,        1,    84480, 0xf43019f3
0,        261,        261,        1,    84480, 0x43245e76
0,        262,        262,        1,    84480, 0xe9d94523
0,        263,        263,        1,    84480, 0x0b7539a5
0,        264,        264,        1,    84480, 0xfc3f5763
0,        265,        265,        1,    84480, 0x846d691d
0,        266,        266,        1,    84480, 0x2aad4eca
0,        267,        267,        1,    84480, 0xba82731a
0,        268,        268,        1,    84480, 0xe90fb24f
0,        269,        269,        1,    84480, 0x6919e365
0,        270,        270,        1,    84480, 0x12011c55
0,        271,        271,        1,    84480, 0xc20868b3
0,        272,        272,        1,    84480, 0x720dabe9
0,        273,        273,        1,    84480, 0x0a40e20d
0,        274,        274,        1,    84480, 0x662a6635
0,        275,        275,        1,    84480, 0xdb48dd1b
0,        276,        276,        1,    84480, 0x0c2009c5
0,        277,        277,        1,    84480, 0x9f21b34a
0,        278,        278,        1,    84480, 0x3931b6b9
0,        279,        279,        1,    84480, 0x6a8a8936
0,        280,        280,        1,    84480, 0x45697fc3
0,        281,        281,        1,    84480, 0xcc85cf4e
0,        282,        282,        1,    84480, 0x58acd33e
0,        283,        283,        1,    84480, 0xe79274d3
0,        284,        284,        1,    84480, 0xb8322ca2
0,        285,        285,        1,    84480, 0x05f95fe4
0,        286,        286,        1,    84480, 0xf77688a6
0,        287,        287,        1,    84480, 0x4aabb494
0,        288,        288,        1,    84480, 0xb820f77b
0,        289,        289,        1,    84480, 0xa1563328
0,        290,        290,        1,    84480, 0x16dbc5ec
0,        291,        291,        1,    84480, 0x196076d7
0,        292,        292,        1,    84480, 0x8e262edb
0,        293,        293,        1,    84480, 0xeb07f850
0,        294,        294,        1,    84480, 0x2ad980d6
0,        295,        295,        1,    84480, 0xcd5b774b
0,        296,        296,        1,    84480, 0x7bf16202
0,        297,        297,        1,    84480, 0xc3d25eb8
0,        298,        298,        1,    84480, 0x2d54b60a
0,        299,        299,        1,    84480, 0x6962b7cf
